<?xml version="1.0" standalone="no"?>
<!DOCTYPE svg PUBLIC "-//W3C//DTD SVG 20010904//EN"
 "http://www.w3.org/TR/2001/REC-SVG-20010904/DTD/svg10.dtd">
<svg version="1.0" xmlns="http://www.w3.org/2000/svg"
 width="643.000000pt" height="497.000000pt" viewBox="0 0 643.000000 497.000000"
 preserveAspectRatio="xMidYMid meet">

<g transform="translate(0.000000,497.000000) scale(0.100000,-0.100000)"
fill="#000000" stroke="none">
<path d="M3900 4745 c-36 -30 -135 -108 -220 -172 -215 -163 -373 -326 -356
-368 15 -39 105 3 221 105 39 34 102 82 140 108 118 78 249 173 263 190 10 13
16 14 30 4 9 -6 59 -38 110 -69 l92 -58 -7 -617 c-4 -372 -3 -618 3 -618 5 0
47 23 94 50 47 27 88 50 92 50 7 0 144 60 243 106 81 37 238 99 308 120 43 13
83 26 88 29 5 4 9 116 9 260 l0 254 -32 17 c-18 9 -74 44 -125 78 -50 34 -175
115 -278 181 -253 163 -475 314 -547 373 -22 17 -45 32 -51 31 -7 0 -41 -25
-77 -54z m810 -986 c27 -15 -11 -10 -45 6 l-30 14 30 -6 c17 -3 37 -9 45 -14z"/>
<path d="M3705 4292 c-203 -113 -335 -246 -400 -405 l-20 -49 -114 0 -114 0
-42 88 c-68 139 -185 254 -359 349 -81 45 -119 46 -136 4 -18 -43 -10 -53 95
-118 132 -82 224 -174 274 -274 23 -46 41 -87 41 -93 0 -5 -28 -24 -62 -41
-91 -45 -142 -93 -180 -171 -29 -58 -33 -75 -32 -142 2 -89 19 -134 75 -194
l39 -43 -35 -27 c-43 -33 -117 -135 -151 -210 -26 -57 -26 -57 -50 -41 -73 48
-603 317 -814 414 -338 155 -482 210 -696 265 -160 41 -345 61 -469 52 -78 -6
-427 -47 -433 -51 -1 -1 12 -47 29 -101 60 -189 150 -378 237 -499 148 -208
340 -380 507 -456 34 -15 100 -55 146 -88 95 -68 291 -169 389 -199 196 -61
373 -57 570 14 74 26 503 227 528 247 17 13 21 6 46 -68 12 -33 16 -59 10 -64
-5 -4 -52 -22 -104 -40 -52 -18 -174 -67 -270 -109 -260 -113 -372 -201 -597
-469 -23 -28 -86 -82 -140 -120 -114 -82 -141 -109 -126 -124 16 -16 71 2 293
93 241 98 269 114 378 204 48 40 116 88 152 107 36 19 138 84 226 145 206 141
294 186 294 151 0 -6 -26 -46 -57 -90 -42 -59 -70 -87 -109 -109 -29 -16 -68
-42 -86 -58 -18 -16 -71 -57 -118 -91 -97 -71 -129 -108 -204 -236 -79 -134
-220 -402 -249 -470 -36 -88 -75 -210 -92 -294 -8 -40 -26 -106 -40 -145 -47
-135 -62 -241 -30 -218 11 8 76 87 120 147 16 22 79 92 140 155 172 179 257
316 315 513 56 188 176 467 201 467 13 0 11 -22 -12 -177 -35 -228 -17 -480
47 -671 98 -293 290 -541 460 -592 39 -12 40 -13 67 -100 14 -48 40 -126 58
-174 27 -74 34 -86 54 -86 27 0 22 -9 89 185 28 83 55 155 59 161 3 6 19 14
34 17 16 3 65 34 111 69 187 143 366 462 403 722 6 44 12 151 12 236 0 131 -4
174 -27 279 -15 68 -25 125 -23 128 3 2 21 -11 39 -30 47 -47 124 -201 191
-382 105 -285 131 -328 342 -571 38 -44 111 -133 160 -197 50 -64 93 -116 98
-116 27 -2 -8 150 -64 274 -12 28 -23 75 -24 105 -7 140 -184 509 -382 796
-85 123 -116 153 -285 277 -121 88 -158 121 -208 186 -33 44 -60 84 -60 89 0
5 7 15 14 22 18 14 83 -16 175 -79 78 -54 343 -226 372 -242 13 -6 61 -45 106
-86 78 -69 196 -153 214 -153 5 0 55 -21 111 -46 194 -87 338 -134 338 -108 0
21 -32 52 -115 109 -52 37 -117 92 -143 123 -105 125 -218 235 -258 252 -24
11 -60 40 -85 70 -39 47 -62 61 -218 137 -95 46 -223 104 -284 129 -61 24
-113 47 -115 49 -9 8 42 115 52 111 6 -3 45 -19 86 -36 41 -17 138 -62 215
-100 228 -112 300 -137 465 -160 136 -19 399 39 574 127 68 34 219 133 229
148 4 7 38 25 76 40 241 92 493 328 636 598 71 134 193 453 178 467 -15 14
-186 40 -337 52 -115 9 -173 9 -255 -1 -302 -35 -724 -166 -1096 -339 -150
-70 -541 -267 -560 -282 -13 -10 -232 -120 -239 -120 -3 0 -6 7 -6 16 0 39
-64 146 -125 209 -36 37 -65 69 -65 72 0 2 16 17 35 34 19 17 46 55 61 85 24
48 26 63 22 132 -9 143 -69 229 -212 300 -36 19 -66 38 -66 43 0 21 53 117
100 181 56 76 121 130 231 194 42 25 80 52 83 60 7 19 -18 70 -39 78 -21 7
-12 10 -70 -22z m-431 -612 c30 -12 56 -26 59 -33 9 -23 -32 -132 -64 -170
-34 -41 -103 -81 -161 -91 -21 -4 -57 -16 -80 -26 -24 -11 -56 -20 -72 -20
l-29 0 21 23 c53 57 82 201 51 259 -15 28 6 47 68 64 71 19 145 17 207 -6z
m-346 -92 c31 -31 -1 -146 -53 -186 -14 -12 -24 -26 -20 -32 13 -20 -22 -9
-44 14 -33 35 -40 106 -14 146 36 57 102 87 131 58z m545 -10 c15 -23 0 -70
-21 -66 -19 4 -26 29 -18 65 7 26 23 27 39 1z m-2657 -102 c138 -18 330 -67
459 -118 212 -83 305 -123 430 -183 72 -35 166 -79 210 -99 89 -41 379 -196
410 -220 18 -13 14 -14 -35 -1 -58 16 -90 12 -90 -10 0 -42 -204 -23 -345 33
-84 34 -265 122 -348 170 -63 36 -80 43 -87 32 -7 -12 -23 -10 -97 8 -129 32
-304 52 -466 52 -78 0 -200 6 -271 12 l-129 13 -59 125 c-33 69 -66 138 -74
153 -7 16 -14 33 -14 37 0 22 320 19 506 -4z m5211 8 c28 -5 20 -29 -10 -32
-13 -1 -42 -8 -65 -16 -23 -8 -70 -20 -105 -26 -133 -23 -154 -40 -135 -103
15 -49 48 -78 101 -88 25 -4 59 -17 77 -27 l32 -20 -84 -7 c-46 -3 -110 -11
-143 -16 -33 -5 -107 -9 -165 -9 -97 0 -315 -14 -350 -22 -9 -2 -16 6 -18 20
-2 12 -10 22 -18 22 -9 0 -14 11 -14 34 0 19 -4 37 -10 41 -10 6 -104 -39
-163 -79 -21 -14 -42 -26 -46 -26 -5 0 -20 -17 -34 -39 -45 -68 -282 -180
-519 -245 -167 -46 -508 -85 -508 -58 0 18 664 359 792 407 40 16 98 41 129
56 31 16 108 46 170 68 63 22 146 51 186 65 91 32 401 96 513 105 84 7 345 4
387 -5z m-2720 -325 c106 -35 156 -76 238 -198 20 -29 26 -46 18 -48 -7 -2 -9
-11 -6 -19 3 -8 0 -14 -6 -14 -6 0 -11 4 -11 9 0 28 -141 154 -156 139 -2 -2
5 -31 16 -64 41 -132 33 -277 -20 -398 -22 -48 -75 -108 -116 -129 -66 -34
-212 -79 -261 -80 -28 0 -49 -5 -46 -10 11 -18 99 -68 138 -78 68 -17 69 -17
55 -34 -27 -32 -142 -8 -224 47 -79 52 -152 136 -198 226 -40 78 -43 90 -46
181 -5 114 12 187 61 266 43 71 74 102 140 146 128 84 282 105 424 58z m1793
-39 c0 -5 -4 -10 -10 -10 -5 0 -10 5 -10 10 0 6 5 10 10 10 6 0 10 -4 10 -10z
m-30 -4 c0 -3 -4 -8 -10 -11 -5 -3 -10 -1 -10 4 0 6 5 11 10 11 6 0 10 -2 10
-4z m-4053 -117 c295 -38 347 -52 563 -148 47 -21 106 -46 133 -55 26 -10 47
-21 47 -25 0 -5 -25 -11 -56 -14 -34 -3 -71 -15 -93 -29 -51 -34 -106 -56
-181 -73 -75 -17 -91 -18 -70 -5 13 8 13 9 0 13 -8 2 -31 9 -51 16 -45 14
-126 4 -160 -21 -24 -18 -29 -18 -94 -3 -85 19 -175 67 -288 151 -100 75 -215
202 -195 217 19 12 269 -1 445 -24z m4699 10 c-32 -5 -91 -18 -130 -30 -39
-11 -78 -21 -86 -22 -8 -1 -18 -6 -22 -12 -4 -5 -24 -11 -45 -12 -21 -2 -58
-5 -83 -7 -25 -2 -57 -4 -72 -5 -22 -1 -28 -6 -28 -23 0 -33 -33 -121 -50
-135 -18 -14 -54 -24 -182 -53 -66 -15 -98 -27 -98 -36 0 -8 -6 -14 -14 -14
-21 0 -166 55 -225 85 -28 14 -57 25 -65 25 -34 0 -23 20 16 30 24 6 81 33
128 60 47 26 103 55 125 64 48 20 227 49 430 70 208 22 216 23 345 23 102 1
108 0 56 -8z m-3366 -369 c0 -5 -8 -10 -17 -10 -10 0 -121 -33 -248 -74 -126
-41 -274 -88 -327 -103 -69 -20 -98 -33 -102 -45 -6 -24 -52 -23 -166 2 -104
23 -211 68 -189 80 8 4 48 13 89 19 41 7 116 23 166 36 49 13 124 26 165 30
40 4 130 18 198 31 180 36 431 56 431 34z m1968 -25 c79 -14 189 -29 245 -34
63 -5 166 -25 263 -51 87 -23 172 -45 188 -48 l30 -7 -37 -12 c-20 -6 -35 -8
-32 -3 2 4 -98 10 -223 13 -211 4 -233 7 -317 32 -210 64 -360 98 -389 89 -18
-6 -18 -7 5 -20 13 -7 19 -13 12 -14 -18 0 -67 23 -76 36 -4 7 -26 15 -50 19
-95 16 -66 24 83 25 122 0 186 -5 298 -25z m-725 -32 c-5 -2 -8 -20 -6 -40 5
-67 -76 -185 -174 -251 -36 -25 -66 -29 -61 -7 2 8 30 36 63 62 72 58 96 93
132 189 23 58 31 70 42 61 7 -6 9 -13 4 -14z m-1228 -402 c-23 -20 -244 -139
-249 -133 -3 3 -6 15 -6 27 0 18 18 29 113 68 105 42 164 59 142 38z m1772
-63 c61 -30 88 -58 57 -58 -20 0 -119 53 -154 81 l-25 21 30 -7 c17 -3 58 -20
92 -37z m-1251 -23 c114 -69 264 -91 397 -60 42 10 83 15 92 12 8 -4 31 -39
50 -79 26 -54 35 -86 35 -125 0 -51 0 -52 -37 -64 -67 -20 -394 -23 -542 -4
-150 19 -235 40 -228 58 2 7 12 35 21 64 18 55 82 161 124 206 14 15 27 27 28
27 1 0 28 -16 60 -35z m700 -98 l15 -32 -25 30 c-26 30 -34 51 -16 40 6 -3 17
-21 26 -38z m-1593 -43 c3 -3 -15 -22 -41 -40 -84 -61 -166 -113 -171 -108 -7
6 76 90 123 125 37 27 75 37 89 23z m2446 -69 c65 -47 76 -73 18 -44 -44 22
-87 57 -87 71 0 16 20 8 69 -27z m-2102 -157 c-13 -18 -56 -94 -94 -169 l-70
-136 -24 17 -23 18 42 66 c23 36 61 95 83 131 40 62 81 105 101 105 5 0 -2
-15 -15 -32z m504 -138 c79 -8 228 -11 402 -8 152 2 277 0 277 -5 0 -4 -9 -18
-21 -30 -12 -12 -37 -54 -56 -93 -44 -91 -97 -143 -155 -155 -104 -21 -530 -1
-653 30 l-30 8 1 131 c1 73 4 138 7 146 5 11 13 11 54 1 26 -7 105 -18 174
-25z m1303 -69 l47 -64 -23 -24 -22 -24 -11 53 c-6 29 -21 73 -34 98 -28 54
-19 46 43 -39z m-2044 -214 c22 -19 26 -27 18 -42 -7 -11 -13 -13 -17 -7 -3 6
-30 -35 -59 -91 -42 -79 -47 -95 -26 -72 l27 30 -18 -30 c-9 -16 -27 -39 -39
-50 -12 -11 -35 -40 -51 -64 -32 -48 -43 -41 -24 16 14 45 150 333 157 333 2
0 17 -11 32 -23z m2160 3 c0 -4 15 -41 34 -82 28 -61 81 -187 103 -248 3 -8
-7 5 -23 30 -15 25 -40 61 -56 82 -15 20 -49 74 -73 121 l-46 85 22 16 c22 15
39 13 39 -4z m-1470 -204 c75 -12 181 -18 377 -20 150 -1 275 -5 278 -7 2 -3
-19 -21 -48 -39 -40 -27 -59 -48 -83 -95 -27 -53 -38 -64 -95 -95 -63 -35 -65
-35 -189 -35 -69 0 -167 6 -218 14 l-93 14 -23 46 c-34 66 -76 188 -76 218 0
28 -17 29 170 -1z m340 -485 l125 -7 -45 -21 c-25 -11 -67 -24 -95 -28 -27 -4
-58 -11 -67 -16 -21 -11 -24 -39 -5 -40 9 0 9 -2 0 -5 -26 -11 -193 100 -193
128 0 7 25 8 78 3 42 -5 133 -11 202 -14z"/>
<path d="M1336 3185 c32 -30 63 -55 69 -55 12 1 -104 110 -117 110 -5 0 17
-25 48 -55z"/>
<path d="M4030 2830 c-8 -5 -10 -10 -5 -10 6 0 17 5 25 10 8 5 11 10 5 10 -5
0 -17 -5 -25 -10z"/>
<path d="M3188 1493 c7 -3 16 -2 19 1 4 3 -2 6 -13 5 -11 0 -14 -3 -6 -6z"/>
<path d="M4029 4095 c-3 -2 -30 -8 -60 -12 l-54 -8 4 -75 c2 -41 4 -76 6 -78
1 -1 28 0 59 4 l56 7 0 83 c0 81 -1 89 -11 79z"/>
<path d="M3690 4031 c-24 -7 -25 -10 -22 -81 2 -41 5 -76 7 -79 2 -2 29 0 59
3 l54 7 7 69 c4 38 4 74 0 79 -7 12 -66 13 -105 2z"/>
<path d="M1640 3760 l0 -100 63 0 c40 0 70 5 85 16 20 14 22 20 16 87 -4 48
-12 76 -22 85 -9 7 -43 12 -79 12 l-63 0 0 -100z"/>
<path d="M1910 3828 c-1 -2 -3 -52 -6 -111 l-6 -108 79 3 78 3 0 99 c0 57 -4
100 -10 101 -16 5 -135 16 -135 13z"/>
<path d="M2162 3683 l3 -78 78 -3 77 -3 0 58 c0 32 3 68 6 81 6 22 5 22 -80
22 l-87 0 3 -77z"/>
<path d="M3943 3733 c-13 -5 -18 -118 -7 -159 5 -19 9 -19 53 -10 l49 9 6 60
c11 110 12 107 -41 106 -27 0 -54 -3 -60 -6z"/>
<path d="M3778 3700 c-26 -3 -50 -8 -53 -12 -8 -8 61 -162 75 -166 28 -10 40
21 40 99 0 43 -3 79 -7 81 -5 2 -29 1 -55 -2z"/>
<path d="M3927 3413 c-2 -5 -2 -39 1 -76 l4 -68 57 3 56 3 3 73 3 72 -60 0
c-33 0 -62 -3 -64 -7z"/>
<path d="M4925 2143 c-99 -37 -284 -52 -412 -34 -29 4 -53 6 -53 4 0 -1 13 -9
28 -17 44 -23 127 -102 195 -185 87 -108 167 -191 201 -208 16 -8 51 -36 78
-60 l48 -46 0 282 0 281 -22 -1 c-13 0 -41 -7 -63 -16z"/>
<path d="M4227 1763 c3 -10 26 -47 51 -83 104 -149 129 -192 202 -345 92 -192
119 -263 172 -460 22 -82 51 -190 64 -239 13 -48 24 -110 24 -137 l0 -49 135
0 135 0 0 506 0 506 -34 -6 c-81 -15 -315 55 -485 145 -72 39 -243 156 -249
171 -7 16 -21 7 -15 -9z"/>
<path d="M4187 870 c-7 -32 -16 -401 -11 -416 3 -7 63 -9 186 -7 100 2 184 5
186 7 1 2 -28 41 -66 87 -37 46 -86 111 -109 145 -23 33 -73 94 -111 135 -66
70 -70 73 -75 49z"/>
<path d="M1290 389 c-501 -7 -630 -19 -655 -59 -14 -23 18 -35 128 -47 261
-28 1715 -41 1875 -17 l44 7 -7 56 c-4 31 -9 58 -12 61 -7 7 -825 6 -1373 -1z"/>
<path d="M3661 390 l-65 -5 -23 -52 -22 -53 22 -12 c27 -16 951 -20 1537 -7
329 8 622 27 638 43 2 3 -1 12 -7 20 -20 23 -133 44 -306 55 -163 11 -1658 20
-1774 11z"/>
</g>
</svg>
